<svg version="1.1" id="Layer_1" xmlns="http://www.w3.org/2000/svg" xmlns:xlink="http://www.w3.org/1999/xlink" x="0px" y="0px"
	 width="100%" viewBox="0 0 1024 1024" enable-background="new 0 0 1024 1024" xml:space="preserve">
<path fill="#000000" opacity="1.000000" stroke="none" 
	d="
M397.957916,431.887878 
	C394.080200,438.093353 390.404266,443.997528 386.910828,449.608551 
	C388.297272,452.154968 390.138153,451.645630 391.702911,451.651123 
	C405.034821,451.697998 418.367950,451.597748 431.698334,451.749451 
	C434.937561,451.786316 436.831726,450.595428 438.550903,447.903900 
	C462.402313,410.562317 486.350250,373.282349 510.290649,335.997620 
	C511.172668,334.623962 511.743317,332.963745 514.096863,331.848907 
	C555.159302,395.883820 596.262634,459.982361 637.332825,524.029297 
	C635.777100,525.982544 633.984924,525.307556 632.443848,525.311462 
	C612.779175,525.361572 593.113159,525.241516 573.450378,525.442566 
	C569.592712,525.481995 567.398376,524.103821 565.406677,520.965881 
	C549.962952,496.635132 534.392151,472.384918 518.824646,448.132935 
	C517.337646,445.816406 516.214294,443.109863 513.561157,441.847778 
	C511.100159,442.826172 510.288666,444.956299 509.146790,446.731537 
	C493.557953,470.967285 477.898499,495.158936 462.535431,519.537292 
	C459.816772,523.851257 456.886536,525.478149 451.742493,525.464355 
	C390.915344,525.301514 330.087555,525.394165 269.259918,525.398193 
	C267.293304,525.398315 265.256714,525.758423 263.394867,524.746948 
	C263.838104,521.766968 509.668701,128.375137 513.816467,124.289490 
	C597.291931,257.773407 680.687866,391.130188 763.991272,524.338928 
	C763.147827,525.849060 762.040161,525.441284 761.110229,525.441101 
	C738.612549,525.436646 716.113708,525.288940 693.618103,525.492859 
	C689.243408,525.532410 686.678894,524.183289 684.370972,520.471497 
	C656.223450,475.200897 627.940308,430.014557 599.663147,384.824707 
	C572.446716,341.330139 545.203613,297.852295 517.951355,254.380127 
	C514.539368,248.937378 513.143494,248.911743 509.694611,254.383911 
	C478.343201,304.127808 447.027649,353.894287 415.705231,403.656494 
	C409.848419,412.961304 404.007812,422.276276 397.957916,431.887878 
z"/>
<path fill="#000000" opacity="1.000000" stroke="none" 
	d="
M678.958740,701.922607 
	C691.064392,701.970886 689.194092,701.314087 689.333801,711.840393 
	C689.413391,717.836609 689.154419,723.842712 689.405762,729.829346 
	C689.569824,733.736877 688.154480,735.142639 684.259338,735.099365 
	C671.933228,734.962463 659.604370,735.090881 647.276550,735.088745 
	C623.787048,735.084656 600.297607,735.058533 576.808105,735.047607 
	C570.596313,735.044739 564.473572,734.329529 558.740601,731.861633 
	C544.253357,725.625305 537.518616,714.094299 537.439209,698.744202 
	C537.296143,671.093079 537.506531,643.439575 537.655762,615.787537 
	C537.754517,597.492737 552.230103,583.245361 570.645508,582.592102 
	C592.956604,581.800720 615.255432,582.688171 637.559570,582.588806 
	C654.032166,582.515442 670.505310,582.552612 686.978210,582.560608 
	C687.943115,582.561096 688.907898,582.740784 690.315247,582.881287 
	C690.315247,593.173767 690.313354,603.289673 690.316833,613.405579 
	C690.317566,615.570557 689.049438,616.282593 687.107056,616.277100 
	C685.607971,616.272888 684.108826,616.313965 682.609680,616.314209 
	C649.790955,616.319824 616.972229,616.323242 584.153503,616.325439 
	C573.942566,616.326111 573.188721,617.084595 573.151794,627.471863 
	C573.139893,630.803589 573.335693,634.149048 573.097351,637.463806 
	C572.803101,641.556580 574.350464,643.079529 578.529785,642.984680 
	C588.686829,642.754272 598.852417,642.889465 609.014526,642.891663 
	C631.337891,642.896606 653.662415,643.031738 675.983704,642.824036 
	C680.785950,642.779297 682.506104,644.257141 682.265442,649.069397 
	C681.941284,655.550171 681.925842,662.073975 682.280029,668.551819 
	C682.537231,673.256531 680.742432,674.483521 676.255188,674.462952 
	C644.270142,674.316467 612.284058,674.393921 580.298340,674.402405 
	C573.115051,674.404297 573.103577,674.408386 573.112488,681.460815 
	C573.117554,685.458130 573.073303,689.458923 573.221313,693.451843 
	C573.405029,698.408691 576.365784,700.957825 581.024292,701.671753 
	C582.987671,701.972595 585.010437,701.963745 587.006165,701.963684 
	C617.492920,701.963196 647.979675,701.940796 678.958740,701.922607 
z"/>
<path fill="#000000" opacity="1.000000" stroke="none" 
	d="
M379.390503,702.121948 
	C379.391571,711.931458 379.282074,721.261292 379.454102,730.585938 
	C379.513702,733.816040 378.471558,735.063904 375.193756,735.012146 
	C366.701141,734.877930 358.203522,734.889099 349.710602,735.017944 
	C345.844604,735.076477 344.587799,733.517639 344.596375,729.645996 
	C344.701324,682.340942 344.711731,635.035400 344.579254,587.730469 
	C344.567291,583.453247 346.187439,582.344482 350.104370,582.346741 
	C377.731445,582.362549 405.358612,582.171326 432.985718,582.184937 
	C448.453796,582.192627 463.922546,582.409058 479.389526,582.633179 
	C499.208008,582.920410 512.867493,596.467346 513.185852,616.377747 
	C513.404175,630.032715 513.412842,643.697571 513.170532,657.351807 
	C512.842834,675.817383 498.010376,690.219910 479.263031,690.300598 
	C448.781616,690.431763 418.299316,690.344055 387.817474,690.395020 
	C379.232117,690.409424 379.386932,688.950562 379.392487,698.641968 
	C379.393066,699.641418 379.391205,700.640808 379.390503,702.121948 
M404.500000,657.738464 
	C424.807312,657.727356 445.114868,657.767700 465.421844,657.678467 
	C473.022308,657.645081 476.424957,654.321960 476.638000,646.758789 
	C476.825348,640.106384 476.790649,633.443237 476.675232,626.787964 
	C476.536560,618.789551 474.071747,616.345398 466.114960,616.333618 
	C438.983032,616.293457 411.850403,616.408875 384.719574,616.233215 
	C380.421478,616.205444 379.268585,617.783997 379.327026,621.743225 
	C379.481842,632.227234 379.471893,642.717163 379.293457,653.200745 
	C379.232574,656.778015 380.672913,657.841553 384.026123,657.761963 
	C390.513947,657.607971 397.008331,657.730103 404.500000,657.738464 
z"/>
<path fill="#000000" opacity="1.000000" stroke="none" 
	d="
M141.998810,734.977539 
	C135.101547,734.977295 128.703629,734.977295 121.299149,734.977295 
	C123.650696,730.168152 125.288651,726.753357 126.981552,723.366089 
	C148.277817,680.754944 169.579544,638.146545 190.891571,595.543274 
	C191.934525,593.458313 193.092575,591.431213 194.184509,589.370483 
	C196.694473,584.633728 200.539658,582.518311 205.977051,582.581970 
	C219.473953,582.739929 232.976974,582.792419 246.471512,582.550903 
	C252.738724,582.438782 257.010193,584.940063 259.742676,590.402466 
	C267.418182,605.746155 275.138947,621.067505 282.740540,636.447754 
	C298.017303,667.357300 313.227600,698.299744 328.461334,729.230530 
	C329.114746,730.557190 330.074951,731.777710 329.989502,733.487793 
	C328.639862,735.450195 326.483521,734.954102 324.597168,734.967773 
	C315.431854,735.034058 306.263275,734.869385 297.101166,735.052246 
	C293.385284,735.126343 291.391815,733.604736 289.840820,730.325439 
	C285.710754,721.593262 281.149780,713.064880 277.019501,704.332764 
	C275.600739,701.333191 273.772614,700.247314 270.481995,700.258972 
	C240.984894,700.363342 211.487137,700.359070 181.990005,700.260437 
	C178.920868,700.250183 177.166672,701.156311 175.816086,704.014709 
	C171.620316,712.894836 166.959442,721.556824 162.837463,730.469299 
	C161.247589,733.907043 159.081314,735.127380 155.494736,734.982178 
	C151.169556,734.807190 146.830963,734.964417 141.998810,734.977539 
M242.331818,633.085938 
	C240.999115,630.406921 239.271225,627.848450 238.410217,625.025574 
	C236.126221,617.537048 231.304810,615.190247 223.769791,616.164490 
	C220.530945,616.583191 218.713928,617.548950 217.308533,620.432617 
	C210.463852,634.477234 203.430832,648.429993 196.538330,662.451477 
	C195.849319,663.853149 194.558899,665.209229 195.257553,667.115906 
	C216.221832,667.115906 237.155457,667.115906 259.044434,667.115906 
	C253.318390,655.468018 247.983185,644.615234 242.331818,633.085938 
z"/>
<path fill="#000000" opacity="1.000000" stroke="none" 
	d="
M900.953857,587.964844 
	C881.085815,610.211609 861.536438,632.269714 841.753357,654.116150 
	C838.950317,657.211548 840.226196,658.805603 842.278198,661.121765 
	C861.053223,682.313599 879.776489,703.551270 898.503601,724.785522 
	C901.018188,727.636658 903.469971,730.543152 906.073120,733.565979 
	C904.240417,735.457275 902.151733,734.948120 900.307800,734.959167 
	C889.314087,735.025391 878.318054,734.877319 867.326355,735.038818 
	C863.488220,735.095215 860.889282,733.746399 858.346741,730.830688 
	C842.256714,712.378906 825.960571,694.106934 809.755310,675.755371 
	C808.881287,674.765686 808.213501,673.593872 807.086426,671.989990 
	C803.057007,676.389038 799.692383,679.977295 796.420959,683.648560 
	C782.130676,699.685730 767.849792,715.731506 753.620117,731.822449 
	C752.121277,733.517273 750.662231,734.926025 748.234009,734.924805 
	C735.075623,734.918213 721.917175,734.948059 708.758850,734.930237 
	C708.158325,734.929443 707.558289,734.589722 706.971436,734.411926 
	C706.637329,731.961426 708.539368,731.027710 709.662903,729.757629 
	C729.854980,706.930420 749.995117,684.055481 770.421570,661.439209 
	C773.972351,657.507812 773.979370,655.218567 770.434998,651.281189 
	C751.047302,629.743774 731.963379,607.932861 712.786011,586.206299 
	C712.138123,585.472290 711.607666,584.634583 711.016113,583.836731 
	C712.268555,581.867004 714.116699,582.656311 715.605713,582.645020 
	C727.088379,582.557434 738.574158,582.715332 750.054016,582.512878 
	C753.738037,582.447876 756.201416,583.673828 758.591736,586.459778 
	C773.015686,603.270996 787.610107,619.935913 802.162415,636.636719 
	C803.572754,638.255249 805.085266,639.784851 806.882080,641.711487 
	C811.775208,637.832520 815.282837,632.961365 819.217163,628.568298 
	C831.548096,614.799500 843.752991,600.915710 855.835632,586.928650 
	C858.585205,583.745789 861.516907,582.411804 865.749817,582.512207 
	C876.904358,582.776733 888.069153,582.595032 899.229858,582.619263 
	C900.836487,582.622742 902.442688,582.782593 904.089966,582.872314 
	C904.136658,585.461243 902.198303,586.284851 900.953857,587.964844 
z"/>
<path fill="#000000" opacity="1.000000" stroke="none" 
	d="
M635.014160,820.324219 
	C632.521606,820.322571 630.524170,820.330200 628.526855,820.317749 
	C619.075562,820.258850 616.229309,817.573120 616.050720,808.257690 
	C615.932800,802.101440 615.912537,795.938232 616.062561,789.783325 
	C616.238831,782.550049 618.218323,780.091431 625.309753,779.358826 
	C633.744446,778.487427 642.235107,778.426758 650.689636,779.525085 
	C655.663696,780.171265 658.061157,783.321289 658.193481,787.985779 
	C658.410522,795.635498 658.419189,803.303101 658.155518,810.950745 
	C657.948853,816.944641 654.618103,819.872131 647.990234,820.242981 
	C643.841431,820.475098 639.670410,820.310730 635.014160,820.324219 
M644.974915,811.646912 
	C648.040527,811.676575 648.988708,809.791382 649.003174,807.127502 
	C649.029297,802.310974 648.992981,797.494141 649.032471,792.677734 
	C649.057739,789.602661 647.654480,788.077698 644.521790,788.089722 
	C639.539368,788.108887 634.556274,788.073669 629.574158,788.006104 
	C626.381470,787.962830 625.138977,789.550415 625.204163,792.639343 
	C625.305908,797.454224 625.332947,802.274292 625.228516,807.088623 
	C625.152954,810.574951 626.827026,811.786194 630.120178,811.700378 
	C634.767761,811.579285 639.420837,811.669739 644.974915,811.646912 
z"/>
<path fill="#000000" opacity="1.000000" stroke="none" 
	d="
M242.242554,800.714966 
	C235.829514,805.759888 237.920227,810.594421 241.718002,815.588623 
	C242.569687,816.708557 243.585449,818.009216 243.028976,819.682251 
	C235.257614,821.285400 234.070923,821.324097 231.125137,814.681458 
	C227.843491,807.281555 222.689285,805.313171 215.318985,806.257141 
	C212.907410,806.566040 211.587662,807.061523 211.819824,809.789795 
	C211.988068,811.767151 211.687317,813.779602 211.731171,815.773376 
	C211.813965,819.537415 209.858810,820.472107 206.386398,820.379517 
	C202.589584,820.278259 202.670380,817.935425 202.673920,815.323242 
	C202.688141,804.828308 202.700104,794.333374 202.664581,783.838562 
	C202.656082,781.324585 202.793839,779.013672 206.138092,779.014709 
	C215.619720,779.017639 225.106842,778.374695 234.579056,779.449463 
	C239.713165,780.032043 242.325668,782.846802 242.688034,787.897156 
	C242.985840,792.047363 243.399399,796.204346 242.242554,800.714966 
M217.706345,797.742981 
	C221.705551,797.729370 225.707199,797.623535 229.703201,797.730042 
	C233.197266,797.823181 233.786407,795.804077 233.823517,792.924866 
	C233.860931,790.021729 233.248886,788.006958 229.781998,788.060730 
	C225.450806,788.127869 221.112762,788.181274 216.786621,788.012024 
	C213.209366,787.872192 211.344604,788.690491 211.282898,792.937744 
	C211.218948,797.340515 213.299194,798.033142 217.706345,797.742981 
z"/>
<path fill="#000000" opacity="1.000000" stroke="none" 
	d="
M488.739197,779.237915 
	C497.983917,779.062134 506.798279,779.013672 515.610840,778.862183 
	C518.588562,778.811035 520.271790,779.642517 520.277954,783.065735 
	C520.283813,786.302490 519.439575,788.096191 515.838196,788.038147 
	C508.686218,787.922729 501.527954,788.125366 494.378632,787.944092 
	C490.543091,787.846802 488.876282,789.264832 489.042908,793.173340 
	C489.234100,797.657837 489.195251,802.157166 489.105225,806.647034 
	C489.034424,810.178833 490.441071,811.862732 494.131012,811.725830 
	C498.617218,811.559204 503.113831,811.644165 507.605682,811.668579 
	C510.634521,811.684998 511.762695,810.073425 511.598785,807.243225 
	C511.424652,804.237000 509.385651,804.492493 507.282776,804.688904 
	C505.632172,804.843079 503.965942,804.875000 502.306458,804.878113 
	C499.542938,804.883301 498.613739,803.377380 498.644745,800.726685 
	C498.674683,798.172729 499.289856,796.564392 502.240906,796.615723 
	C507.063965,796.699707 511.890106,796.696472 516.713501,796.626953 
	C519.257202,796.590332 520.328979,797.712646 520.280457,800.225098 
	C520.209839,803.883789 520.382935,807.549316 520.242493,811.203918 
	C520.021301,816.959656 517.425781,819.939331 511.678680,820.180725 
	C504.205841,820.494629 496.700287,820.485046 489.226715,820.178223 
	C483.354187,819.937134 480.045624,816.425964 479.875305,810.551941 
	C479.663208,803.237610 479.691406,795.909790 479.856384,788.593201 
	C479.982086,783.019226 482.357391,780.613098 488.739197,779.237915 
z"/>
<path fill="#000000" opacity="1.000000" stroke="none" 
	d="
M814.576050,805.180420 
	C808.345032,803.561096 802.346313,804.493286 796.389282,804.333557 
	C791.829102,804.211243 787.238220,803.699219 785.678711,798.834778 
	C783.958191,793.468079 783.273254,787.683655 786.647217,782.538330 
	C788.680359,779.437683 792.345032,779.119568 795.621582,779.028198 
	C803.934326,778.796448 812.257935,778.993652 820.575439,778.881531 
	C823.883545,778.836975 824.908997,780.413757 824.896606,783.475342 
	C824.884216,786.548218 823.788452,788.097473 820.520813,788.055664 
	C813.367493,787.964172 806.212036,788.022949 799.057556,788.046021 
	C796.510376,788.054199 793.608215,787.979858 793.543091,791.501831 
	C793.477966,795.025391 796.073303,795.699219 799.059509,795.671204 
	C804.549561,795.619812 810.045227,795.536804 815.530151,795.719238 
	C821.659241,795.923096 824.179382,798.631592 824.375854,804.746277 
	C824.818298,818.516663 823.076904,820.320007 809.320923,820.320740 
	C802.499084,820.321045 795.675232,820.213806 788.856262,820.350952 
	C785.494751,820.418579 784.605042,818.877258 784.629578,815.794556 
	C784.653564,812.783142 785.840576,811.640930 788.795044,811.676636 
	C796.114868,811.765198 803.437561,811.756409 810.757385,811.661621 
	C815.657959,811.598206 816.205505,810.672668 814.576050,805.180420 
z"/>
<path fill="#000000" opacity="1.000000" stroke="none" 
	d="
M740.890625,806.718872 
	C738.339478,809.899963 739.500000,813.337280 739.409790,816.555969 
	C739.317993,819.833313 737.637390,820.317200 734.952881,820.343079 
	C732.144165,820.370056 730.619019,819.579712 730.645752,816.422119 
	C730.740173,805.283813 730.698059,794.144226 730.667786,783.005249 
	C730.661621,780.737061 731.193787,778.982849 733.879822,778.992798 
	C743.343445,779.027832 752.817749,778.357178 762.266785,779.412842 
	C767.489868,779.996399 770.453918,782.654358 770.497925,788.148254 
	C770.512512,789.971130 770.851135,791.790710 770.876404,793.614136 
	C770.977356,800.908752 770.516968,801.876770 764.942932,806.549133 
	C766.107483,811.141724 769.869019,814.614258 771.175354,819.224060 
	C764.634155,821.691528 761.416199,821.165771 759.132690,815.256042 
	C755.682068,806.326294 749.283264,805.204163 740.890625,806.718872 
M756.232300,788.068054 
	C751.901245,788.080139 747.567566,788.189209 743.239868,788.074219 
	C739.622620,787.977966 739.326172,790.142944 739.307861,792.951233 
	C739.289368,795.799011 739.648193,797.873657 743.266785,797.750122 
	C747.759155,797.596741 752.261475,797.681519 756.758545,797.737793 
	C759.515747,797.772400 761.692566,797.445251 761.751892,793.832703 
	C761.807190,790.467224 761.585022,787.687683 756.232300,788.068054 
z"/>
<path fill="#000000" opacity="1.000000" stroke="none" 
	d="
M422.658813,799.999878 
	C422.657257,795.169189 422.438080,790.823059 422.739685,786.513367 
	C422.916290,783.989868 420.950287,780.169983 424.912598,779.267822 
	C428.943604,778.350098 433.348846,778.231262 436.313751,782.224060 
	C440.383453,787.704773 444.356110,793.257385 448.389252,798.765320 
	C450.637543,801.835632 452.924194,804.877869 456.106018,809.161072 
	C456.106018,800.045105 456.154663,792.315308 456.083557,784.586487 
	C456.052429,781.201172 456.555634,778.816772 460.910797,778.853333 
	C465.157867,778.889099 465.272705,781.322021 465.251740,784.413147 
	C465.188477,793.740601 465.369659,803.072266 465.138855,812.394470 
	C465.073059,815.052673 466.918945,819.137695 462.772919,820.023438 
	C458.641388,820.906128 454.122589,821.224487 451.026062,816.835876 
	C446.418640,810.306030 441.630463,803.903748 436.915039,797.450134 
	C435.395721,795.370789 433.863312,793.301086 431.331207,791.591187 
	C431.331207,799.351257 431.290863,807.111633 431.351227,814.871216 
	C431.375061,817.937073 431.299011,820.367676 427.023071,820.401306 
	C422.781647,820.434631 422.570251,818.124817 422.634796,814.990845 
	C422.734253,810.162354 422.660309,805.330261 422.658813,799.999878 
z"/>
<path fill="#000000" opacity="1.000000" stroke="none" 
	d="
M870.699829,804.159668 
	C864.400635,804.194702 858.571228,804.135681 852.745056,804.246399 
	C850.463501,804.289795 847.416687,803.268188 847.355103,807.420593 
	C847.292786,811.617493 850.032166,811.732239 853.076599,811.708313 
	C859.070984,811.661255 865.067322,811.769653 871.060120,811.661194 
	C874.259888,811.603333 876.471741,811.949402 876.399719,816.133057 
	C876.333008,820.008911 874.331543,820.390503 871.311829,820.353394 
	C863.819519,820.261230 856.324097,820.404724 848.832397,820.289795 
	C841.711853,820.180542 838.732361,817.189209 838.675476,810.253662 
	C838.616760,803.093811 838.604858,795.932373 838.687866,788.773010 
	C838.757019,782.811829 840.816467,780.277527 846.805542,779.439392 
	C855.409302,778.235107 864.089722,779.049011 872.736450,778.945251 
	C876.034790,778.905701 876.310364,781.035889 876.346558,783.633850 
	C876.386292,786.491638 875.421814,788.019470 872.360596,787.998840 
	C865.700500,787.954041 859.039490,787.992126 852.379333,788.051270 
	C850.409302,788.068787 848.080994,787.833984 847.551514,790.473816 
	C846.979553,793.325989 847.070923,795.840210 851.215454,795.740601 
	C857.372925,795.592651 863.537048,795.691711 869.697937,795.735596 
	C871.683167,795.749756 873.983276,795.558472 874.148010,798.447021 
	C874.285583,800.858643 874.967102,803.714539 870.699829,804.159668 
z"/>
<path fill="#000000" opacity="1.000000" stroke="none" 
	d="
M369.192505,804.682678 
	C370.277191,805.819031 370.644958,807.301758 372.669495,807.489075 
	C372.669495,799.617676 372.779877,791.846985 372.619202,784.081848 
	C372.547485,780.616211 373.485321,778.867065 377.333862,778.864624 
	C381.362518,778.862122 381.374908,781.259216 381.361816,784.116943 
	C381.317627,793.765259 381.448120,803.415649 381.275513,813.061035 
	C381.232605,815.459717 382.837219,819.149048 379.343536,819.952332 
	C375.423126,820.853699 370.954346,821.412903 367.929688,817.288757 
	C363.897003,811.790100 359.887604,806.274414 355.846771,800.781799 
	C353.423615,797.488037 350.959747,794.224304 347.342804,791.261963 
	C347.342804,799.328369 347.154358,807.401062 347.420105,815.458679 
	C347.558746,819.662415 345.677094,820.601624 342.032654,820.328796 
	C339.773376,820.159607 338.701904,819.263000 338.705017,816.981567 
	C338.720673,805.503601 338.721130,794.025513 338.688171,782.547668 
	C338.681763,780.320862 339.634430,779.173035 341.888580,778.991211 
	C346.960022,778.582275 351.225800,779.372986 354.393494,784.192261 
	C358.955322,791.132446 364.109833,797.683044 369.192505,804.682678 
z"/>
<path fill="#000000" opacity="1.000000" stroke="none" 
	d="
M265.512482,816.536621 
	C262.997742,822.496460 258.507721,819.765625 254.367996,820.005859 
	C254.818390,815.176819 257.541016,811.660095 259.233612,807.807007 
	C263.039246,799.143494 267.160309,790.614319 271.328308,782.116394 
	C273.276947,778.143433 281.628387,777.180054 283.520020,780.919189 
	C289.869934,793.470703 295.763947,806.252808 301.850647,818.984741 
	C294.897858,821.701660 292.438507,820.906433 289.615753,815.082275 
	C288.508087,812.796814 286.958679,811.931519 284.534485,811.971741 
	C280.382080,812.040588 276.218597,812.124023 272.076141,811.899292 
	C268.718719,811.717224 266.711761,813.097046 265.512482,816.536621 
M280.718506,795.705627 
	C279.760284,793.959961 279.516937,791.762146 277.554016,790.217224 
	C275.633881,794.598755 273.295532,798.361328 272.365875,802.744934 
	C278.567719,804.105713 279.677155,804.003174 283.061615,801.878967 
	C282.999084,799.822693 281.801422,798.165771 280.718506,795.705627 
z"/>
<path fill="#000000" opacity="1.000000" stroke="none" 
	d="
M687.402405,811.672974 
	C692.019775,811.673767 696.187561,811.566589 700.347900,811.696533 
	C704.186462,811.816467 705.755676,810.136475 705.694275,806.311707 
	C705.571167,798.651001 705.756836,790.985413 705.640320,783.324524 
	C705.592102,780.155518 706.737976,778.806396 709.999329,778.835876 
	C713.203125,778.864868 714.425171,780.128906 714.383057,783.331604 
	C714.262695,792.492065 714.391846,801.655518 714.327576,810.817078 
	C714.284851,816.903198 711.795959,819.890686 705.707458,820.160583 
	C697.894287,820.506958 690.042542,820.513916 682.229675,820.166443 
	C676.148804,819.896118 673.056030,816.610352 672.908508,810.557617 
	C672.685303,801.401306 672.945496,792.234131 672.814819,783.074158 
	C672.759216,779.176208 675.054016,778.925842 678.006592,778.857300 
	C681.283813,778.781128 682.381104,780.236206 682.333008,783.384094 
	C682.213379,791.211609 682.383179,799.043457 682.270813,806.871155 
	C682.222595,810.234009 683.492615,811.917480 687.402405,811.672974 
z"/>
<path fill="#000000" opacity="1.000000" stroke="none" 
	d="
M564.646362,797.016113 
	C564.647461,794.523865 564.648193,792.527832 564.648682,790.531799 
	C564.650940,781.904419 566.733093,779.383057 575.264038,779.018066 
	C583.233948,778.677063 591.229797,778.990479 599.211731,778.860474 
	C602.626343,778.804871 603.333130,780.538757 603.384216,783.521423 
	C603.439026,786.722961 602.213623,788.082825 599.028320,788.043823 
	C592.209656,787.960266 585.387573,788.094849 578.570557,787.958130 
	C574.834839,787.883179 573.014099,789.207947 573.199585,793.185486 
	C573.408569,797.667175 573.346191,802.167297 573.242859,806.655762 
	C573.160522,810.230530 574.664246,811.788452 578.304443,811.719299 
	C585.121643,811.589661 591.944580,811.771973 598.762390,811.658203 
	C601.890991,811.606018 603.262695,812.736023 603.301270,815.992737 
	C603.340027,819.265991 602.005859,820.395447 598.850952,820.351929 
	C590.535706,820.237183 582.214844,820.444641 573.902100,820.258972 
	C567.476562,820.115540 564.729736,817.046326 564.656616,810.486450 
	C564.608521,806.162231 564.646362,801.837097 564.646362,797.016113 
z"/>
<path fill="#000000" opacity="1.000000" stroke="none" 
	d="
M164.704041,790.569824 
	C161.882584,786.396729 157.912689,788.758240 154.536789,788.153015 
	C152.121170,787.719971 148.962982,788.997253 148.657166,784.705261 
	C148.385269,780.889099 149.253708,778.765930 153.688492,778.842407 
	C164.331268,779.025940 174.979904,778.941406 185.625320,778.856689 
	C188.914093,778.830505 190.434906,779.943115 190.411377,783.499390 
	C190.388184,787.004028 188.948578,788.048462 185.632019,788.172302 
	C174.034592,788.605469 174.037674,788.697937 174.041245,800.371033 
	C174.042831,805.527649 173.932037,810.687805 174.088287,815.839722 
	C174.195801,819.384033 172.584503,820.406372 169.256149,820.388550 
	C166.019577,820.371338 164.801697,819.125793 164.829041,815.953491 
	C164.900726,807.637695 164.802063,799.320374 164.704041,790.569824 
z"/>
<path fill="#000000" opacity="1.000000" stroke="none" 
	d="
M314.080170,817.600037 
	C313.976837,806.180847 314.009521,795.218567 313.874237,784.258423 
	C313.829620,780.645447 314.790192,778.734680 318.923615,778.801636 
	C323.105682,778.869324 323.303833,781.227417 323.281860,784.341736 
	C323.209229,794.639221 323.278473,804.937622 323.211121,815.235229 
	C323.198792,817.114685 323.743469,819.731262 320.992035,820.052979 
	C318.611481,820.331421 315.549866,821.652039 314.080170,817.600037 
z"/>
<path fill="#000000" opacity="1.000000" stroke="none" 
	d="
M397.650818,807.984985 
	C397.653534,799.507080 397.720703,791.525208 397.626251,783.545105 
	C397.591003,780.566406 398.349304,778.866882 401.774658,778.853638 
	C405.220947,778.840332 406.441772,780.189331 406.396729,783.606995 
	C406.254364,794.412964 406.263611,805.222839 406.382812,816.029297 
	C406.418549,819.266907 405.208527,820.398926 401.995544,820.380249 
	C398.774994,820.361511 397.446106,819.167664 397.633942,815.962219 
	C397.779510,813.476929 397.655396,810.975769 397.650818,807.984985 
z"/>
</svg>