<svg version="1.1" id="Layer_1" xmlns="http://www.w3.org/2000/svg" xmlns:xlink="http://www.w3.org/1999/xlink" x="0px" y="0px"
	 width="100%" viewBox="0 0 1024 1024" enable-background="new 0 0 1024 1024" xml:space="preserve">
<path fill="#000000" opacity="1.000000" stroke="none" 
	d="
M494.956665,224.941406 
	C497.827423,223.584854 499.606445,222.088837 497.629822,219.038925 
	C496.465027,217.241684 497.482300,215.919922 498.574738,214.582153 
	C500.786530,211.873703 502.925751,209.105057 505.173920,206.427567 
	C506.798279,204.493011 507.083313,202.965881 505.094757,200.852036 
	C496.523041,191.740219 496.099091,185.341034 503.003052,174.585693 
	C506.969330,168.406830 506.419586,161.176956 507.636475,154.372711 
	C509.121735,146.068100 510.320251,137.712296 511.659271,129.381271 
	C511.788940,128.574554 511.956268,127.725830 513.528809,127.485390 
	C516.334473,132.944153 516.113770,139.176361 517.238220,145.034637 
	C518.644165,152.359573 519.319214,159.821945 520.538147,167.187210 
	C520.964905,169.765671 521.674072,172.308609 523.201782,174.635483 
	C529.623718,184.416901 529.232666,191.463501 521.764954,200.897003 
	C520.214233,202.855911 520.225708,204.368378 521.775452,206.173019 
	C523.511108,208.194183 525.111084,210.331360 526.827026,212.370163 
	C528.750977,214.656204 530.090942,216.865845 528.234558,219.987671 
	C526.404480,223.065277 529.151611,224.072296 531.172729,225.116196 
	C547.048828,233.316177 562.056458,242.925171 576.342224,253.604492 
	C603.467407,273.881836 628.221924,296.459900 644.815796,326.635742 
	C655.696533,346.422516 662.333313,367.490265 664.466553,390.044342 
	C665.758545,403.704529 665.811707,417.260498 663.730957,430.821625 
	C663.278259,433.772064 664.299500,436.163422 666.955017,437.532654 
	C674.830750,441.593475 675.836060,449.759735 667.186401,455.147064 
	C663.087341,457.700104 662.081055,460.565857 662.247253,464.911285 
	C662.508240,471.733704 662.403687,478.574127 662.305481,485.404816 
	C662.241821,489.830750 664.223877,491.669373 668.650635,491.735748 
	C674.462219,491.822876 680.264343,492.422363 686.075562,492.695038 
	C689.627380,492.861694 692.410156,494.249023 694.712891,496.990387 
	C713.032349,518.799194 731.368225,540.594421 749.779663,562.325562 
	C754.422424,567.805420 753.405884,574.194519 753.077759,580.447021 
	C752.945007,582.976013 750.294983,582.638306 748.673645,582.657227 
	C742.523438,582.729431 736.352051,582.144470 730.220093,582.445923 
	C702.772827,583.794983 675.880737,578.918640 648.853210,575.516479 
	C621.185425,572.033691 593.750061,573.322632 566.562317,579.569275 
	C565.431885,579.828979 564.326233,580.232788 563.248352,580.667114 
	C562.827087,580.836914 562.514465,581.276428 561.111633,582.503052 
	C567.741943,582.928223 573.366760,583.489075 579.001343,583.614197 
	C599.316040,584.065308 619.640381,584.157532 639.949219,584.774902 
	C678.890381,585.958740 717.823914,587.393250 756.758789,588.776794 
	C760.241699,588.900574 763.724792,589.306152 767.182556,589.769653 
	C771.128662,590.298584 774.210205,594.142944 774.164001,598.885071 
	C774.124817,602.907654 772.936523,606.464478 768.276428,607.593140 
	C765.976685,608.150146 763.683228,608.343628 761.340027,608.211548 
	C741.725891,607.105652 722.087708,606.765259 702.453918,606.202393 
	C663.515320,605.086182 624.576782,603.835938 585.662048,602.105591 
	C574.846680,601.624695 564.053467,601.065369 553.241760,601.350464 
	C542.971802,601.621277 533.689270,604.694885 525.794128,611.631653 
	C516.800171,619.533936 510.432312,619.590698 501.617035,611.632141 
	C491.870178,602.832520 480.927673,599.184631 467.680298,600.837952 
	C456.648285,602.214905 445.401917,601.880249 434.278320,602.087952 
	C411.466003,602.513916 388.715393,604.203308 365.900757,604.598328 
	C347.608185,604.914978 329.297821,605.744080 311.016510,606.589050 
	C294.387726,607.357605 277.744904,607.058472 261.120728,608.052856 
	C252.796082,608.550720 249.029129,600.572205 253.504593,593.442505 
	C255.032516,591.008423 257.113617,589.900146 260.051361,589.574219 
	C273.820190,588.046875 287.666718,588.585571 301.468567,587.882263 
	C326.405670,586.611572 351.399628,586.505310 376.355957,585.549683 
	C400.651306,584.619446 424.944153,583.821045 449.257355,583.598877 
	C453.706238,583.558289 458.149750,582.931274 463.227264,582.524353 
	C461.722443,580.209961 459.721832,579.858887 457.956451,579.443909 
	C433.793152,573.764893 409.493591,572.155640 384.688538,575.014832 
	C365.706360,577.202942 346.878235,580.876587 327.825867,581.992310 
	C311.050964,582.974731 294.178650,582.269287 277.349731,582.374512 
	C274.439056,582.392700 273.822113,580.893188 273.646484,578.327576 
	C273.097839,570.312805 274.433655,563.644592 280.364502,557.036255 
	C297.152374,538.330627 313.259460,518.981750 328.940979,499.332642 
	C334.593964,492.249359 341.906952,492.995514 349.076965,491.768097 
	C349.564972,491.684570 350.074768,491.716003 350.574493,491.715240 
	C365.032135,491.693054 363.748993,492.349121 363.739838,478.334747 
	C363.737854,475.335205 363.517822,472.316925 363.775421,469.339905 
	C364.343048,462.780273 363.806183,457.526245 356.814636,453.637207 
	C350.404602,450.071625 351.217102,442.566101 358.024017,438.827026 
	C362.897217,436.150208 363.593536,433.183319 362.841400,427.968445 
	C356.049866,380.879517 368.675934,339.066803 397.829071,301.878723 
	C411.920593,283.903381 429.074921,269.203705 447.125061,255.439484 
	C462.119354,244.005508 478.042236,234.032608 494.956665,224.941406 
M446.165863,547.946045 
	C457.705231,550.723633 468.792542,554.581177 479.092194,560.663452 
	C489.438416,566.773132 497.442169,575.637634 505.712372,584.101135 
	C508.365021,581.715942 507.889648,579.588989 507.894470,577.679077 
	C507.925110,565.520630 506.764130,553.236267 508.128601,541.235901 
	C509.760590,526.883057 503.775909,517.331909 493.012695,509.475616 
	C491.399048,508.297760 489.843353,507.032928 488.176605,505.936401 
	C458.293945,486.278107 426.207916,483.605591 392.657257,494.060669 
	C378.798828,498.379272 364.678192,501.211700 350.384613,503.344635 
	C345.883118,504.016357 342.313385,505.609924 339.416199,509.335022 
	C333.692963,516.693787 327.563049,523.734863 321.673584,530.966248 
	C313.471924,541.036621 305.354187,551.175354 297.160553,561.252319 
	C295.093781,563.794128 294.796906,565.977112 298.600037,566.526672 
	C303.027100,567.166260 307.579681,567.804688 312.001343,567.460693 
	C329.293640,566.115295 346.240082,562.776245 362.663849,557.133972 
	C389.543640,547.899719 416.745300,541.797852 446.165863,547.946045 
M571.017395,550.334778 
	C583.788452,545.997681 597.033020,544.877686 610.364319,545.162659 
	C625.792664,545.492432 640.540955,549.594055 655.131104,554.315857 
	C676.376953,561.191711 697.898499,566.713623 720.452271,566.622681 
	C723.477234,566.610474 727.570007,567.883362 728.993896,564.339966 
	C730.211914,561.308960 726.851379,558.999268 725.048950,556.766541 
	C712.190918,540.839478 699.122192,525.082153 686.300293,509.126465 
	C683.472229,505.607147 680.078979,504.049652 675.779846,503.337433 
	C663.338318,501.276245 650.809082,499.478241 638.820312,495.383240 
	C623.874573,490.278320 608.579651,487.737671 592.786865,488.332489 
	C567.775635,489.274475 545.461121,497.043060 527.324524,514.825012 
	C523.140198,518.927551 518.306152,522.940125 518.315674,529.765259 
	C518.338684,546.252441 518.280029,562.739807 518.306274,579.226990 
	C518.309082,580.965332 517.864197,582.985962 520.925293,584.551697 
	C527.219238,577.039246 534.369934,569.962097 542.554993,564.052734 
	C551.005920,557.951355 560.362732,553.712524 571.017395,550.334778 
M547.761108,347.425507 
	C546.643127,329.583221 542.459045,312.327942 537.307068,295.320435 
	C532.575562,279.701202 526.938049,264.381653 518.603027,250.242630 
	C514.575012,243.409714 512.166870,243.423279 508.300934,250.143524 
	C498.264862,267.589294 491.869415,286.502563 486.374573,305.733185 
	C476.625214,339.853546 474.410431,374.672089 477.243164,409.907166 
	C477.899811,418.074829 478.684418,418.669800 486.917786,418.671967 
	C504.056946,418.676514 521.196106,418.697540 538.335266,418.710907 
	C546.998779,418.717651 547.947815,417.873474 548.603333,409.109558 
	C550.120422,388.826447 550.221313,368.557770 547.761108,347.425507 
M587.372009,323.143005 
	C574.745056,295.219360 556.380371,271.547699 534.140015,249.935730 
	C532.712158,252.830261 533.914001,254.413452 534.613831,255.988434 
	C535.965393,259.030151 537.631042,261.938812 538.878052,265.019440 
	C550.734741,294.310699 558.827271,324.469940 560.571655,356.209473 
	C561.604614,375.005554 562.056946,393.737427 559.543762,412.450562 
	C558.981628,416.636444 560.225403,419.616028 565.148438,420.022339 
	C575.076904,420.841644 584.992004,421.824646 594.910339,422.764679 
	C597.715393,423.030579 599.383484,421.950378 599.727783,419.043549 
	C600.332947,413.934814 601.314270,408.845428 601.542603,403.721436 
	C602.773560,376.097137 598.994263,349.308197 587.372009,323.143005 
M471.116425,316.851807 
	C475.748230,293.782593 484.570282,272.108704 494.120178,250.491318 
	C490.981903,249.838577 490.029297,251.687653 488.881775,252.941879 
	C483.373108,258.962860 477.778137,264.917480 472.526794,271.158966 
	C455.787201,291.054840 441.855835,312.632538 433.241333,337.381500 
	C425.685852,359.088013 423.563324,381.519531 424.538147,404.271545 
	C424.762115,409.498291 424.700928,414.909302 426.245361,420.085449 
	C426.845642,422.097198 427.607635,423.354401 429.993805,423.099701 
	C440.071564,422.024017 450.155273,421.001740 460.242249,420.015503 
	C464.328796,419.615967 466.014069,417.594238 465.722626,413.397003 
	C465.019806,403.276031 464.201935,393.141022 464.100159,383.004944 
	C463.879150,360.988831 466.168549,339.188324 471.116425,316.851807 
M409.604401,311.087555 
	C398.835419,324.999390 390.197906,340.074493 384.291718,356.704529 
	C376.280853,379.260681 373.989838,402.264008 378.319397,425.872223 
	C378.895752,429.014862 379.960480,431.395081 383.775909,430.693542 
	C392.587769,429.073334 401.378479,427.333588 410.206085,425.806122 
	C413.139313,425.298523 414.133179,423.725830 413.946686,420.983459 
	C413.586151,415.681366 413.042053,410.364594 412.826355,405.085907 
	C411.855225,381.326019 414.323120,357.952789 422.077667,335.303284 
	C430.601288,310.407440 444.161194,288.443024 460.774780,268.216339 
	C462.570740,266.029785 465.081482,264.136475 465.444275,259.228882 
	C444.009186,274.482971 425.496826,290.813660 409.604401,311.087555 
M647.645081,377.792847 
	C641.279785,344.002228 623.769043,316.313843 600.121033,292.198944 
	C588.460876,280.308563 575.797119,269.472748 561.131958,260.056519 
	C561.131958,261.508270 561.000183,261.922150 561.151306,262.121552 
	C564.468079,266.497711 567.776001,270.881653 571.164673,275.202118 
	C599.496887,311.324768 614.236450,352.105804 613.286987,398.238739 
	C613.150269,404.882416 612.661438,411.518585 612.356262,418.159210 
	C612.161499,422.396576 613.750427,425.120087 618.312988,425.861389 
	C625.354614,427.005493 632.398682,428.214935 639.355103,429.781067 
	C646.559265,431.402924 647.582458,430.819275 648.684814,423.320801 
	C650.882751,408.370026 650.503357,393.486938 647.645081,377.792847 
M503.205841,441.272278 
	C509.668335,441.430023 516.130493,441.211914 522.597656,441.296265 
	C541.743164,441.546082 560.899963,441.956665 579.916931,443.955933 
	C600.708496,446.141754 621.415222,449.266205 641.742188,454.434174 
	C643.551147,454.894104 646.025757,455.700317 646.673401,452.811829 
	C647.315430,449.948730 645.008606,448.995911 642.862671,448.525940 
	C637.509888,447.353638 632.124634,446.309601 626.724060,445.378540 
	C593.750549,439.693695 560.568909,436.488617 527.080444,435.795166 
	C505.074158,435.339478 483.135925,436.104645 461.226440,437.519531 
	C443.991791,438.632538 426.817108,440.840698 409.754120,443.618469 
	C401.063843,445.033234 392.455017,446.972290 383.844666,448.837280 
	C381.613586,449.320496 378.823792,450.143066 379.843475,453.340240 
	C380.691589,455.999512 383.040649,455.769226 385.293457,454.957611 
	C386.070007,454.677887 386.916382,454.596985 387.724243,454.398346 
	C415.728363,447.512390 444.234406,444.433807 472.952820,442.489563 
	C482.763824,441.825348 492.589478,442.246185 503.205841,441.272278 
z"/>
<path fill="#000000" opacity="1.000000" stroke="none" 
	d="
M204.654297,759.687378 
	C207.533569,758.567566 207.739197,756.453430 207.722519,754.190063 
	C207.686935,749.360413 207.738297,744.529663 207.664703,739.700745 
	C207.566589,733.261658 205.189911,730.691162 198.750031,730.130371 
	C196.180527,729.906616 193.671280,730.065125 193.683701,726.295166 
	C193.696594,722.376953 196.356384,722.746033 198.854004,722.741394 
	C208.347122,722.723938 217.840485,722.702209 227.333282,722.759583 
	C229.380081,722.771912 231.863495,722.201355 232.278580,725.471741 
	C232.608154,728.068359 231.637543,729.438843 229.077667,730.168457 
	C225.499939,731.188293 224.344879,734.059692 224.334030,737.512512 
	C224.312561,744.341003 224.243729,751.170654 224.343826,757.997620 
	C224.382095,760.606873 223.696350,762.526917 221.125916,763.540283 
	C198.792328,772.345276 176.617096,774.619324 155.079224,761.369934 
	C144.796585,755.044373 139.839951,745.050293 137.187912,733.633179 
	C131.583023,709.503845 141.997925,684.605347 162.430145,673.704346 
	C176.658127,666.113403 191.640671,665.748535 207.004623,669.258850 
	C211.394318,670.261841 215.658142,671.602844 219.868927,673.202942 
	C222.190933,674.085266 223.463821,675.271973 223.362823,677.898560 
	C223.157944,683.226807 223.505997,688.531860 224.127487,693.837341 
	C224.437027,696.479919 224.436569,698.896057 220.484177,699.609192 
	C216.646957,700.301575 215.949066,698.511963 215.148117,695.660645 
	C211.677200,683.304504 203.199738,676.457642 190.665710,675.647156 
	C180.674377,675.000977 168.873047,679.153870 162.841934,691.539978 
	C154.692398,708.276855 154.814484,725.553833 161.959076,742.289185 
	C169.444733,759.823364 184.939148,765.683838 204.654297,759.687378 
z"/>
<path fill="#000000" opacity="1.000000" stroke="none" 
	d="
M848.336243,769.981079 
	C820.449280,772.294067 808.493408,752.891418 813.240906,726.839539 
	C817.271484,704.721924 834.737061,693.556030 857.026367,697.341614 
	C861.754700,698.144592 863.468933,696.777832 863.634705,691.892822 
	C863.736328,688.899292 863.677673,685.899414 863.654724,682.902771 
	C863.607361,676.722839 861.899109,674.527954 855.823608,673.433838 
	C853.763062,673.062683 852.343811,672.469116 852.111877,670.222717 
	C851.887756,668.052307 852.817627,666.665100 854.963196,666.254944 
	C863.076843,664.703674 871.198364,663.193665 879.012878,661.725403 
	C881.044189,663.629944 880.311096,665.568237 880.313599,667.300110 
	C880.354126,694.938477 880.335144,722.576904 880.350586,750.215332 
	C880.354858,757.900818 880.749329,758.395996 888.465332,759.716858 
	C890.216431,760.016724 891.260803,760.631958 891.289490,762.472351 
	C891.315430,764.138916 891.536499,766.012573 889.265686,766.416077 
	C881.920654,767.721497 874.595337,769.236206 867.195740,770.096313 
	C863.220276,770.558411 865.755737,765.877136 862.742432,763.991882 
	C858.184143,764.635620 854.227722,769.351807 848.336243,769.981079 
M841.554077,756.073669 
	C843.653259,757.563965 846.148682,758.085266 848.565979,758.493591 
	C857.663574,760.030457 863.661804,755.006714 863.666992,746.051086 
	C863.672241,737.070862 863.677368,728.090637 863.666199,719.110413 
	C863.657288,711.932007 861.868042,709.467407 855.009705,707.110291 
	C847.262207,704.447510 839.959961,707.001709 835.309082,713.668030 
	C832.125977,718.230408 830.928223,723.414795 830.584961,728.691895 
	C829.903809,739.163757 831.496887,748.991150 841.554077,756.073669 
z"/>
<path fill="#000000" opacity="1.000000" stroke="none" 
	d="
M682.304871,710.245911 
	C675.133667,712.510681 672.507324,716.758118 673.086609,724.185181 
	C673.835815,733.790833 673.352966,743.500061 673.230957,753.162537 
	C673.180176,757.179199 674.298035,760.099548 678.675903,760.699768 
	C681.595703,761.100037 681.296570,763.176819 681.276428,765.186401 
	C681.254822,767.349731 679.913574,768.094849 678.023132,768.101624 
	C668.360596,768.136292 658.697876,768.139832 649.035217,768.145935 
	C646.777588,768.147400 645.749268,767.016235 645.711670,764.739746 
	C645.676880,762.632812 646.240906,761.067871 648.577026,760.860840 
	C654.453003,760.340088 655.777893,756.511780 655.775330,751.432190 
	C655.763733,728.607117 655.862915,705.782043 655.852722,682.956970 
	C655.849548,675.900024 654.821472,674.692749 647.884644,673.330444 
	C645.999817,672.960266 644.839600,672.347534 644.672668,670.268005 
	C644.494141,668.045166 645.395569,666.807129 647.553589,666.381348 
	C655.045959,664.903015 662.512817,663.278625 670.036621,661.983887 
	C673.296875,661.422852 673.243225,664.089417 673.248413,666.302612 
	C673.274475,677.466125 673.251709,688.629761 673.310425,699.793030 
	C673.320435,701.690186 672.769470,703.818970 674.681946,705.363220 
	C677.440857,705.108826 679.120850,703.075134 681.116455,701.705078 
	C687.473389,697.340637 694.581055,695.903870 702.040649,696.729858 
	C711.839172,697.814941 718.122314,705.777344 718.354126,716.886475 
	C718.593872,728.373047 718.771545,739.861572 718.877808,751.350098 
	C718.922180,756.152039 719.217346,760.511597 725.565430,760.962463 
	C727.938965,761.131104 728.222046,763.096863 728.097412,765.088074 
	C727.966431,767.181702 726.690002,768.014282 724.789062,768.024902 
	C715.127075,768.078430 705.464905,768.120789 695.802917,768.103638 
	C693.859375,768.100159 692.774292,767.060730 692.723328,764.978333 
	C692.674377,762.978455 692.918762,761.189453 695.298950,760.851257 
	C700.686890,760.085571 701.729248,756.373474 701.709656,751.787537 
	C701.669922,742.457153 701.660889,733.126343 701.710693,723.796082 
	C701.729065,720.356384 700.697205,717.172852 699.227966,714.206360 
	C696.477051,708.652283 690.791870,707.356873 682.304871,710.245911 
z"/>
<path fill="#000000" opacity="1.000000" stroke="none" 
	d="
M328.653931,738.976624 
	C328.649109,721.156067 328.666992,703.831116 328.642517,686.506226 
	C328.628876,676.852905 328.168945,676.201477 319.143860,673.165344 
	C317.424316,672.586853 316.800110,671.535339 316.760101,669.848816 
	C316.720032,668.160828 317.173279,666.923645 319.036560,666.563782 
	C326.862000,665.052185 334.651367,663.313049 342.521423,662.092041 
	C345.919556,661.564819 345.292847,664.732422 345.306458,666.719971 
	C345.381775,677.714294 345.316681,688.709473 345.375153,699.703979 
	C345.385315,701.615051 344.587952,704.092468 346.786224,705.149170 
	C349.008057,706.217468 350.355530,703.935669 351.869385,702.792114 
	C358.750702,697.593567 366.535187,695.755920 374.953003,696.817749 
	C383.516449,697.898010 389.539001,705.394226 390.347229,715.154419 
	C391.352631,727.295471 390.818024,739.459106 391.074402,751.610229 
	C391.171631,756.220581 391.488922,760.369507 397.486511,761.012085 
	C399.760834,761.255676 400.100586,763.321960 399.937805,765.277527 
	C399.763947,767.366211 398.299774,768.068604 396.460907,768.078796 
	C387.133575,768.130432 377.806030,768.152649 368.478546,768.151306 
	C366.331146,768.151001 364.997620,767.105286 364.924774,764.848511 
	C364.860138,762.845337 365.420227,761.152222 367.705872,760.787476 
	C372.514160,760.020386 373.513214,756.718811 373.804474,752.481384 
	C374.457123,742.986511 374.074097,733.515503 373.755280,724.030640 
	C373.639984,720.600342 372.694641,717.456177 371.179779,714.473267 
	C368.785034,709.757812 364.248749,707.607727 359.107758,708.648132 
	C355.122406,709.454651 351.607025,711.342651 348.269714,713.590515 
	C346.138062,715.026245 345.361450,717.122314 345.363403,719.607971 
	C345.372314,730.935852 345.325958,742.264038 345.393890,753.591553 
	C345.414856,757.090027 346.988525,759.843994 350.583008,760.598633 
	C353.743530,761.262146 353.369049,763.424072 353.224335,765.559021 
	C353.050323,768.126221 351.022736,768.178162 349.177673,768.185791 
	C340.515717,768.221558 331.853485,768.204956 323.191437,768.184631 
	C321.118927,768.179749 319.104767,768.060730 318.813263,765.271790 
	C318.546021,762.714844 319.364777,761.036011 322.125305,760.716309 
	C326.168274,760.248047 327.470215,757.721497 328.010773,753.923706 
	C328.697784,749.096924 328.590607,744.294067 328.653931,738.976624 
z"/>
<path fill="#000000" opacity="1.000000" stroke="none" 
	d="
M635.738892,727.562134 
	C642.477539,742.841553 637.291992,755.566895 629.061890,762.430176 
	C623.641235,766.950562 617.125977,769.257324 610.330688,770.015076 
	C599.318604,771.243103 588.445801,770.281006 578.052429,765.819702 
	C574.745605,764.400208 573.085754,762.254761 572.730835,758.743530 
	C572.179871,753.293762 571.400574,747.867371 570.811951,742.420959 
	C570.539917,739.904724 570.230957,737.324341 573.869202,736.727539 
	C577.237854,736.174927 578.727600,737.101013 579.707153,740.747742 
	C583.678894,755.535034 592.909302,762.379761 607.091064,761.745667 
	C614.388855,761.419434 619.070618,758.093994 621.085632,751.805359 
	C623.008179,745.805298 620.777344,738.955200 615.619507,734.830688 
	C610.994690,731.132446 605.460999,729.170410 600.195740,726.708130 
	C595.209045,724.376282 590.282471,721.944580 585.793335,718.742065 
	C567.851807,705.942566 570.047913,680.436096 589.934509,670.939514 
	C603.969116,664.237488 617.741760,666.398193 631.350403,672.429626 
	C633.429382,673.351013 634.288269,674.931824 634.277527,677.178162 
	C634.253662,682.174255 634.281738,687.171448 634.370667,692.166748 
	C634.415344,694.678467 633.699463,696.130005 630.839783,696.505676 
	C627.961975,696.883728 626.520020,696.080383 625.826904,693.254761 
	C623.599670,684.174377 618.736389,677.404724 608.925049,675.773071 
	C602.542542,674.711670 596.492310,675.880371 592.308105,681.339172 
	C588.899963,685.785522 588.296326,690.833862 591.262512,695.832031 
	C593.840637,700.176392 598.235596,702.364990 602.498840,704.655762 
	C609.678040,708.513489 617.553406,710.905640 624.467834,715.361206 
	C629.214783,718.419983 633.094788,722.113098 635.738892,727.562134 
z"/>
<path fill="#000000" opacity="1.000000" stroke="none" 
	d="
M310.847473,748.523193 
	C301.171234,773.539368 269.260590,775.256226 253.919373,763.194641 
	C242.277771,754.041687 237.702423,737.635925 242.826859,721.118652 
	C247.156342,707.163696 259.760651,697.398499 274.313934,696.724182 
	C293.148132,695.851440 307.266174,704.131775 311.778168,719.234741 
	C314.651123,728.851257 314.256348,738.600464 310.847473,748.523193 
M289.571014,756.060120 
	C298.326660,746.803040 297.036377,722.275330 290.511505,712.947998 
	C283.612701,703.086243 268.994476,703.268433 263.435211,713.927734 
	C256.559326,727.111633 256.328033,740.878052 264.418396,753.816772 
	C270.394653,763.374390 280.820038,764.276062 289.571014,756.060120 
z"/>
<path fill="#000000" opacity="1.000000" stroke="none" 
	d="
M796.832153,757.237305 
	C798.801697,758.158386 800.450378,758.065796 801.913574,757.070251 
	C804.044983,755.619995 805.315308,757.042908 806.616272,758.336487 
	C808.263977,759.975037 807.142639,761.326050 806.087524,762.690918 
	C799.117188,771.706970 787.786011,772.086975 780.353821,763.453125 
	C778.223572,760.978516 776.197876,761.213745 773.881958,763.018982 
	C769.912842,766.112610 765.728821,768.717651 760.607117,769.570251 
	C749.748474,771.377930 742.326294,767.063782 739.621704,759.676270 
	C736.372986,750.802368 739.465698,741.781494 747.893250,737.011047 
	C754.606445,733.211060 762.016846,731.248352 769.435486,729.308716 
	C772.838318,728.419067 777.242432,728.179810 777.513672,723.298706 
	C777.815857,717.861755 778.499817,711.989136 773.288086,708.200073 
	C769.112061,705.163940 764.426392,704.617188 759.681946,707.274963 
	C757.028931,708.761230 756.174622,711.100952 756.306458,713.990540 
	C756.416138,716.394531 755.973999,718.597717 754.050110,720.336426 
	C750.681946,723.380371 745.231567,724.271118 742.535950,722.126709 
	C739.932129,720.055481 739.712280,714.475708 742.451538,710.609314 
	C749.411682,700.785095 759.746887,697.308289 771.055054,696.793579 
	C788.964844,695.978333 794.394653,701.553955 794.375183,719.525024 
	C794.364685,729.184204 794.365173,738.843445 794.348450,748.502625 
	C794.343201,751.531921 794.521179,754.504272 796.832153,757.237305 
M756.730347,748.180420 
	C755.946777,757.014038 761.068481,760.810791 768.870178,757.059570 
	C770.940857,756.063904 772.870117,754.693970 774.687683,753.270447 
	C777.514160,751.056763 778.945129,740.889771 776.968933,737.959229 
	C776.047058,736.592041 774.666199,736.169922 773.091553,736.147095 
	C766.951172,736.058105 759.042297,741.601074 756.730347,748.180420 
z"/>
<path fill="#000000" opacity="1.000000" stroke="none" 
	d="
M425.142853,699.820984 
	C431.188965,697.625549 436.994171,696.570557 443.089569,696.639709 
	C456.954132,696.797180 463.156219,702.785828 463.284821,716.777466 
	C463.391907,728.430725 463.271515,740.085876 463.345367,751.739624 
	C463.388336,758.521667 464.756744,759.479797 470.748047,756.804260 
	C472.937988,755.826233 473.772583,757.248291 474.935608,758.339783 
	C476.607269,759.908447 475.683380,761.251648 474.603851,762.675720 
	C467.135040,772.528198 454.640289,771.994568 447.923065,761.520691 
	C447.751343,761.252930 447.437408,761.076416 447.098816,760.776855 
	C444.558441,760.829041 443.232269,763.054199 441.354584,764.288635 
	C435.238953,768.309265 429.067352,771.029419 421.264252,769.659729 
	C414.027618,768.389587 409.872345,764.412781 408.003326,757.857666 
	C405.745941,749.940491 408.305328,742.415100 414.411011,738.294678 
	C420.844788,733.952942 428.235809,731.777466 435.635895,729.835388 
	C446.389679,727.013184 448.287476,723.988403 445.562195,713.040039 
	C444.476288,708.677551 439.272003,705.112915 434.469727,705.442200 
	C428.521912,705.850159 425.759644,708.525879 425.305481,714.319397 
	C424.911346,719.347107 420.865509,723.203857 415.769196,723.293091 
	C412.049927,723.358215 409.858612,721.769287 409.607849,717.743713 
	C409.168915,710.697449 413.551819,706.785706 418.680634,703.353821 
	C420.608673,702.063721 422.735443,701.070435 425.142853,699.820984 
M433.928680,758.268982 
	C445.133850,754.816833 447.823334,750.533020 446.007874,739.216064 
	C445.599030,736.667358 444.404572,734.908386 441.726837,735.731140 
	C437.603638,736.997864 433.359406,738.198425 429.790588,740.729553 
	C425.638702,743.674316 424.599060,748.131287 425.614105,752.751404 
	C426.415649,756.399658 428.879150,758.943359 433.928680,758.268982 
z"/>
<path fill="#000000" opacity="1.000000" stroke="none" 
	d="
M491.644928,736.934204 
	C491.641235,730.283081 491.560272,724.121460 491.660095,717.962708 
	C491.743347,712.827209 490.045410,709.178528 484.482117,708.311646 
	C482.545837,708.009949 480.892700,707.359985 480.852478,704.984497 
	C480.811615,702.573730 482.498016,702.082642 484.404053,701.613464 
	C490.534729,700.104492 496.659302,698.561462 502.744965,696.882019 
	C506.740814,695.779297 508.810730,696.599915 508.415405,701.259521 
	C508.257782,703.117554 507.518799,705.195251 508.886230,707.036316 
	C511.133392,707.181580 511.414398,705.085876 512.443054,703.980042 
	C516.428040,699.696106 520.795959,696.372375 527.076965,696.644470 
	C533.182983,696.908997 536.964539,701.168823 536.262329,707.178101 
	C535.494751,713.746704 531.719910,716.570435 525.202515,715.037781 
	C520.581360,713.951050 516.265259,713.941345 512.424377,717.022095 
	C509.857422,719.080994 508.281647,721.742249 508.289429,725.186584 
	C508.310120,734.340515 508.303375,743.494629 508.286682,752.648621 
	C508.278473,757.151245 510.533417,759.892883 514.875549,760.661499 
	C517.790405,761.177490 519.568848,762.376831 519.183716,765.545227 
	C518.792236,768.765564 516.155212,768.137390 514.137390,768.153320 
	C504.981354,768.225708 495.824188,768.205994 486.667938,768.146606 
	C484.453979,768.132263 481.756866,768.808838 481.256317,765.329041 
	C480.772034,761.962280 482.698792,760.981445 485.571991,760.616028 
	C488.862030,760.197571 490.501709,758.103943 490.687927,754.849365 
	C491.020233,749.041992 491.327911,743.233215 491.644928,736.934204 
z"/>
<path fill="#000000" opacity="1.000000" stroke="none" 
	d="
M450.286163,840.674927 
	C447.246552,837.073792 445.439758,832.834839 441.694733,830.358704 
	C439.519226,832.089294 440.070099,834.042908 440.034821,835.800415 
	C439.927979,841.126465 439.939972,846.454956 439.831696,851.780945 
	C439.788452,853.908691 438.779205,855.205994 436.434448,855.156616 
	C434.043427,855.106262 432.691833,854.119812 432.696014,851.562439 
	C432.714722,840.071777 432.693604,828.581116 432.707306,817.090454 
	C432.709137,815.544739 432.848541,814.022888 434.903717,813.800842 
	C437.136505,813.559692 439.113647,813.681946 440.647491,815.799561 
	C445.138641,822.000122 449.759918,828.106628 454.347656,834.236938 
	C455.418945,835.668457 456.258911,837.435120 458.520721,837.479065 
	C460.612396,836.101562 459.872009,833.918823 459.905548,832.055115 
	C459.995422,827.061523 459.911926,822.064636 459.893494,817.069092 
	C459.885193,814.821106 460.948486,813.749207 463.245758,813.708252 
	C465.592438,813.666504 467.191895,814.345154 467.192078,816.996582 
	C467.192963,828.653015 467.191345,840.309387 467.161621,851.965820 
	C467.157318,853.649780 466.398193,854.812439 464.578400,855.075439 
	C462.443237,855.383850 460.672821,854.952698 459.330261,853.066895 
	C456.434082,848.998718 453.452301,844.991516 450.286163,840.674927 
z"/>
<path fill="#000000" opacity="1.000000" stroke="none" 
	d="
M800.798889,846.918335 
	C800.765381,837.283630 800.899902,828.131165 800.625671,818.990967 
	C800.499390,814.783508 802.073547,813.319580 806.129333,813.638184 
	C811.079224,814.027161 816.066895,813.227112 821.014465,814.487854 
	C830.504700,816.906189 834.349670,827.308228 827.851196,834.619873 
	C824.403931,838.498535 824.814758,841.464783 827.452637,845.164734 
	C829.443298,847.956848 831.147217,850.953369 833.237366,854.269226 
	C828.699524,855.920959 825.384766,855.899353 822.933716,851.791260 
	C821.231567,848.938232 819.373413,846.169495 817.445190,843.462769 
	C816.028931,841.474731 814.737488,839.054749 811.525757,840.061523 
	C808.156677,841.117615 808.315918,843.874084 808.329590,846.576904 
	C808.336365,847.907410 808.306580,849.238281 808.324219,850.568542 
	C808.357239,853.058167 808.229065,855.225830 804.765015,855.251587 
	C801.202942,855.278015 800.650146,853.215515 800.765686,850.399048 
	C800.806580,849.402466 800.790100,848.403503 800.798889,846.918335 
M819.584534,831.538696 
	C822.602722,829.838806 824.744934,827.694946 822.759521,823.978149 
	C821.012634,820.707703 815.697754,819.202332 811.687561,820.679871 
	C808.311646,821.923767 807.767578,824.745056 808.552246,827.602905 
	C810.091309,833.208862 814.712952,831.959961 819.584534,831.538696 
z"/>
<path fill="#000000" opacity="1.000000" stroke="none" 
	d="
M665.315613,851.742798 
	C665.209229,855.062805 663.336304,855.316772 661.134888,855.064697 
	C658.863770,854.804810 658.723938,853.084717 658.718933,851.372742 
	C658.685608,840.053589 658.668030,828.734375 658.683289,817.415222 
	C658.685242,815.949158 658.551086,814.236328 660.579041,813.863831 
	C662.989014,813.421204 665.122009,813.678894 666.754944,815.948730 
	C671.223938,822.160706 675.817932,828.282715 680.360107,834.442078 
	C681.416870,835.875061 682.135803,837.753052 684.697632,837.517029 
	C686.920105,834.654968 685.617188,831.220642 685.811523,828.050171 
	C686.035095,824.402039 685.894348,820.729065 685.846130,817.067688 
	C685.811096,814.409424 687.258484,813.685242 689.652344,813.692566 
	C692.132812,813.700134 692.849792,815.131409 692.834595,817.194153 
	C692.752563,828.308350 692.674438,839.423035 692.462219,850.535034 
	C692.431396,852.150574 693.330444,854.475891 690.671997,855.101013 
	C688.369812,855.642334 686.433228,854.999329 684.984436,852.993530 
	C680.502136,846.788147 676.009094,840.590271 671.456665,834.436401 
	C670.214050,832.756775 669.309814,830.681335 666.451904,829.673706 
	C664.173706,836.897095 665.891846,844.175171 665.315613,851.742798 
z"/>
<path fill="#000000" opacity="1.000000" stroke="none" 
	d="
M236.100052,855.170410 
	C233.282532,854.858276 232.786713,853.223450 232.787048,851.205566 
	C232.788895,839.876709 232.794418,828.547913 232.770615,817.219055 
	C232.766006,815.030457 233.582031,813.694824 235.951004,813.740295 
	C241.924271,813.854858 247.943497,813.031860 253.839554,814.695129 
	C262.755859,817.210571 266.196320,828.381897 259.544952,834.861450 
	C255.826172,838.484131 256.278412,841.040833 258.994476,844.598022 
	C261.175629,847.454712 262.901978,850.658691 265.061432,854.074463 
	C260.686523,856.021790 257.568207,855.997375 255.129181,852.106079 
	C253.007507,848.721069 250.760483,845.410461 248.461823,842.142212 
	C247.181534,840.322021 245.577789,838.727234 243.045685,839.459290 
	C240.397049,840.224915 240.296295,842.495544 240.275070,844.720581 
	C240.252823,847.052673 240.220383,849.385864 240.263855,851.717224 
	C240.311859,854.292175 239.002792,855.335388 236.100052,855.170410 
M244.913193,832.303772 
	C246.382263,832.191589 247.860092,832.145996 249.318634,831.953796 
	C252.772461,831.498718 255.582779,829.844116 255.409042,826.105530 
	C255.241745,822.505737 252.421005,820.614929 248.992752,820.426575 
	C245.883301,820.255676 241.688675,819.057678 240.618347,823.354919 
	C239.814957,826.580322 238.922607,830.890076 244.913193,832.303772 
z"/>
<path fill="#000000" opacity="1.000000" stroke="none" 
	d="
M485.753784,824.102600 
	C492.348846,810.809998 510.017242,811.130249 516.251587,817.404907 
	C517.607239,818.769409 520.377380,819.986877 518.021301,822.609924 
	C516.057800,824.795898 514.167969,824.899536 511.610474,822.869873 
	C506.422424,818.752625 499.308350,819.400269 494.848145,823.893433 
	C489.794342,828.984619 489.213928,837.047913 493.466156,843.092224 
	C497.373932,848.646973 503.913391,850.642029 509.669647,847.920105 
	C511.955200,846.839294 514.392212,845.411560 514.230225,842.557068 
	C514.046326,839.318237 511.099915,839.143188 508.630310,838.734375 
	C507.647919,838.571777 506.656189,838.454651 505.664520,838.362000 
	C504.280121,838.232666 502.934357,838.053406 502.838409,836.252930 
	C502.740814,834.421875 503.331635,832.731262 505.237061,832.392456 
	C509.833954,831.575256 514.496704,831.519958 519.130005,832.146606 
	C520.410278,832.319702 520.859436,833.461365 521.149536,834.691528 
	C524.225647,847.736328 515.760742,857.263611 502.293121,855.872986 
	C486.477875,854.240051 479.241760,840.633911 485.753784,824.102600 
z"/>
<path fill="#000000" opacity="1.000000" stroke="none" 
	d="
M375.469543,833.528442 
	C377.072174,835.346497 377.719513,837.734192 380.333099,837.950012 
	C382.357788,836.681396 381.577820,834.661987 381.612793,832.971252 
	C381.722870,827.651245 381.693817,822.327698 381.667542,817.005798 
	C381.656311,814.733887 382.628296,813.703430 384.964935,813.716370 
	C387.238922,813.729065 388.346802,814.631287 388.341736,816.952271 
	C388.316559,828.428040 388.331665,839.903870 388.307526,851.379639 
	C388.304382,852.882141 388.296051,854.470642 386.380219,854.969604 
	C383.990509,855.591858 382.185547,854.735107 380.760254,852.788391 
	C376.144501,846.484009 371.516907,840.188049 366.858276,833.915405 
	C365.809235,832.502869 365.024017,830.671509 362.818024,830.683350 
	C360.705109,831.893860 361.389069,833.919373 361.357910,835.631531 
	C361.264099,840.785828 361.292938,845.942749 361.304596,851.098511 
	C361.309662,853.336487 360.803162,855.053467 358.071198,855.110413 
	C355.403320,855.165955 354.661407,853.656006 354.654663,851.315308 
	C354.622070,840.006287 354.537720,828.697388 354.518860,817.388367 
	C354.516449,815.938782 354.369934,814.196411 356.424591,813.865234 
	C358.607880,813.513306 360.726227,813.474731 362.260010,815.586670 
	C364.895508,819.215637 367.612762,822.784973 370.278961,826.391724 
	C371.957458,828.662292 373.605377,830.955444 375.469543,833.528442 
z"/>
<path fill="#000000" opacity="1.000000" stroke="none" 
	d="
M613.988953,845.899292 
	C613.981812,836.921875 614.162476,828.422546 613.870239,819.939575 
	C613.711853,815.341125 614.889771,813.176208 619.962891,813.569580 
	C625.260986,813.980469 630.615906,813.625061 635.944946,813.687317 
	C638.356934,813.715454 641.359924,813.124329 641.204651,817.092957 
	C641.051697,821.002625 638.005188,820.178467 635.649170,820.254211 
	C632.654663,820.350403 629.654358,820.254272 626.656738,820.273071 
	C622.902710,820.296509 621.314880,822.265015 621.330261,825.952820 
	C621.345764,829.666016 623.416138,830.938843 626.718018,830.975647 
	C630.047668,831.012756 633.379272,830.950012 636.706970,831.041931 
	C638.711731,831.097290 640.262512,831.765198 640.264160,834.244446 
	C640.265747,836.707947 638.876343,837.360046 636.750427,837.362915 
	C633.586548,837.367188 630.415100,837.306396 627.261047,837.502441 
	C623.616150,837.728943 621.148743,839.504150 621.476868,843.485596 
	C621.767334,847.010437 623.895935,848.756653 627.534424,848.663208 
	C630.863098,848.577637 634.195923,848.644043 637.526855,848.664978 
	C639.516357,848.677490 641.179871,849.041443 641.210693,851.619995 
	C641.240479,854.118286 640.160156,855.303589 637.634033,855.287354 
	C631.139099,855.245850 624.643127,855.198730 618.149170,855.281799 
	C615.359985,855.317444 614.233948,853.944031 614.135071,851.376648 
	C614.071045,849.713013 614.030640,848.048401 613.988953,845.899292 
z"/>
<path fill="#000000" opacity="1.000000" stroke="none" 
	d="
M783.200256,817.906494 
	C782.272644,820.657776 780.241821,820.233032 778.481628,820.278564 
	C774.990234,820.369019 771.479919,820.155640 768.007812,820.439331 
	C764.926697,820.691101 763.289978,822.630127 763.362671,825.835693 
	C763.434326,828.994202 764.847168,830.869568 768.179871,830.918518 
	C771.671570,830.969910 775.164490,830.969727 778.655212,831.057068 
	C780.933838,831.113953 782.444519,831.926636 782.311401,834.642212 
	C782.181030,837.302185 780.384277,837.420593 778.500305,837.441772 
	C775.174561,837.479248 771.847473,837.391907 768.521484,837.422791 
	C764.333923,837.461731 763.264648,840.016418 763.301086,843.714050 
	C763.337341,847.384460 765.146301,848.745483 768.609741,848.663757 
	C772.267822,848.577454 775.930054,848.685669 779.590027,848.654053 
	C781.955872,848.633606 783.377441,849.390869 783.284058,852.101379 
	C783.200989,854.513977 781.929138,855.259033 779.776672,855.250000 
	C773.121887,855.222168 766.466797,855.194824 759.812134,855.229065 
	C757.230774,855.242310 756.200745,853.810791 756.184509,851.501282 
	C756.103638,840.022339 756.075378,828.543091 756.027283,817.063904 
	C756.016357,814.459167 757.497375,813.652283 759.877991,813.670349 
	C766.366638,813.719543 772.856506,813.734131 779.344727,813.661438 
	C782.022583,813.631470 783.450378,814.640320 783.200256,817.906494 
z"/>
<path fill="#000000" opacity="1.000000" stroke="none" 
	d="
M291.553162,844.527771 
	C287.426880,844.835144 285.621460,847.175964 284.735382,850.509460 
	C283.524078,855.066711 280.715973,856.206787 276.499969,854.461548 
	C275.584625,852.445984 276.698914,850.796448 277.344604,849.183472 
	C281.601318,838.550049 285.959564,827.957153 290.269745,817.345032 
	C291.123291,815.243347 292.109039,813.645264 294.874023,813.632141 
	C297.578979,813.619263 298.744354,815.036133 299.611389,817.177124 
	C304.284668,828.717529 308.973206,840.251709 313.621948,851.801941 
	C313.911011,852.520142 313.905792,853.356873 314.068848,854.324646 
	C310.837006,855.555542 307.349792,856.267212 306.443970,852.470764 
	C304.440094,844.072510 298.454071,844.071960 291.553162,844.527771 
M298.705933,833.613098 
	C297.567352,831.538025 297.733704,828.641296 294.797943,827.451904 
	C292.055939,829.102234 291.349396,831.831177 291.446075,834.637939 
	C291.539276,837.344116 293.270691,838.763916 296.132446,838.567444 
	C298.992371,838.371033 300.047119,837.063721 298.705933,833.613098 
z"/>
<path fill="#000000" opacity="1.000000" stroke="none" 
	d="
M562.894592,842.637695 
	C558.513550,827.799011 565.934265,815.073914 580.076050,813.259583 
	C585.562439,812.555725 591.039246,813.672791 595.502747,817.455750 
	C597.110596,818.818481 599.210266,820.274475 596.850464,822.730469 
	C595.045044,824.609436 593.401978,825.294067 590.845703,823.390198 
	C584.131348,818.389343 577.478088,818.992310 572.768494,824.607361 
	C567.551208,830.827698 567.826172,839.404663 573.420532,844.948486 
	C578.557251,850.038818 585.169678,850.405273 590.890991,845.477661 
	C593.248291,843.447266 594.953064,842.876709 597.105042,845.401917 
	C599.482117,848.191223 597.079895,849.713257 595.442200,851.132446 
	C585.069336,860.121399 568.824280,856.016418 562.894592,842.637695 
z"/>
<path fill="#000000" opacity="1.000000" stroke="none" 
	d="
M726.992676,813.670593 
	C730.822876,813.681885 734.155640,813.704773 737.488220,813.695679 
	C739.600891,813.689941 741.047302,814.362549 741.084290,816.794128 
	C741.123474,819.371948 739.785950,820.385498 737.353394,820.313049 
	C736.354736,820.283325 735.352295,820.287842 734.354614,820.337219 
	C730.392029,820.533569 728.254700,822.348999 728.321045,826.599792 
	C728.443176,834.429932 728.360352,842.263306 728.369019,850.095337 
	C728.371887,852.661987 728.585632,855.250977 724.739990,855.212341 
	C721.152954,855.176208 721.428589,852.754333 721.398071,850.375610 
	C721.297791,842.568359 721.017029,834.759644 721.108337,826.955017 
	C721.172363,821.478516 720.480652,820.461365 715.087341,820.304382 
	C714.088196,820.275269 713.087585,820.256409 712.088501,820.275635 
	C709.856262,820.318542 708.735046,819.364136 708.705078,817.010193 
	C708.675110,814.658936 709.729553,813.689453 711.997864,813.698242 
	C716.830200,813.717041 721.662659,813.681763 726.992676,813.670593 
z"/>
<path fill="#000000" opacity="1.000000" stroke="none" 
	d="
M205.251282,852.647949 
	C204.414474,855.535278 202.421646,855.239258 200.668274,854.871094 
	C198.486526,854.413025 198.733582,852.429138 198.724213,850.808594 
	C198.678040,842.821106 198.493134,834.826843 198.752380,826.847839 
	C198.907578,822.071411 196.969864,820.065613 192.340332,820.259277 
	C191.015335,820.314697 189.678406,820.213928 188.353210,820.107117 
	C186.166245,819.930969 185.756195,818.426941 185.757980,816.580139 
	C185.759766,814.733948 186.639343,813.773804 188.464615,813.768921 
	C197.449677,813.744751 206.434784,813.743347 215.419876,813.736206 
	C217.548508,813.734497 218.290802,814.904541 218.280334,816.913086 
	C218.270050,818.888916 217.535339,819.965942 215.458527,820.245239 
	C212.174713,820.686829 208.000534,818.844299 205.990967,822.854858 
	C204.475586,825.879089 205.444458,829.413940 205.392365,832.718628 
	C205.290054,839.207214 205.323456,845.697998 205.251282,852.647949 
z"/>
<path fill="#000000" opacity="1.000000" stroke="none" 
	d="
M407.006866,815.355835 
	C412.674500,812.502808 414.249207,813.318481 414.282043,818.815918 
	C414.344513,829.272217 414.280334,839.729248 414.322632,850.185730 
	C414.333649,852.912231 414.085083,855.176270 410.489288,855.195984 
	C406.807098,855.216187 406.681000,852.807556 406.695679,850.155090 
	C406.758972,838.705078 406.811279,827.255005 407.006866,815.355835 
z"/>
<path fill="#000000" opacity="1.000000" stroke="none" 
	d="
M330.302551,854.749023 
	C328.383789,853.300232 328.704559,851.536072 328.699615,849.915588 
	C328.667664,839.421509 328.685791,828.927246 328.685760,818.433044 
	C328.685760,816.019165 328.582123,813.741150 332.134888,813.670471 
	C335.674347,813.600098 336.259613,815.517273 336.246857,818.405151 
	C336.199799,829.065552 336.159332,839.727295 336.289124,850.386475 
	C336.339447,854.518677 334.501617,855.788635 330.302551,854.749023 
z"/>
</svg>